# xmcd
#
# Track frame offsets:
#	150
#	17265
#	31211
#	38957
#	48347
#	73513
#	87838
#	101370
#	113763
#	126215
#	141694
#	159516
#	176629
#	189591
#	202336
#	218646
#	232112
#	245744
#	261310
#	270972
#
# Disc length: 3909 seconds
#
# Revision: 1
# Processed by: cddbd v1.5.2PL0 Copyright (c) Steve Scherf et al.
# Submitted via: audiograbber 1.83.01
#
DISCID=210f4314
DTITLE=Welcome to Dixieland  - Bill Bailey Disc 10
DYEAR=1900
DGENRE=Jazz
TTITLE0=Chris Barber's Jazzband - We Shall Walk Through The Streets Of The City
TTITLE1=Firehouse Five Plus Two - Tiger Rag
TTITLE2=Ken Colyer's Jazzmen - Uptown Bumps
TTITLE3=Bob Wallis and His Storyville Jazzmen - Algier's Bounce
TTITLE4=Chris Barber's Jazzband - Makin' Whoopee
TTITLE5=Sandy Brown's Jazzband - Everybody Loves Saturday Night
TTITLE6=Mr. Acker Bilk's Paramount Jazzband - Carry Me Back
TTITLE7=Firehouse Five Plus Two - Red Hot River Valley
TTITLE8=Papa Bue's Viking Jazzband - White Cliffs Of Dover
TTITLE9=Chris Barber's Jazzband - Merry Down Rag
TTITLE10=Ken Colyer's Jazzmen - Saturday Night Fuction
TTITLE11=Henrik Johansen's Jazzband - At Sundown
TTITLE12=Bob Wallis and His Storyville Jazzmen - Knocked 'Em In The Old Kent Road
TTITLE13=Mr. Acker Bilk's Paramount Jazzband - Jump In The Line
TTITLE14=Chris Barber's Jazzband - Bill Bailey
TTITLE15=Firehouse Five Plus Two - Firehouse Stomp
TTITLE16=Mr. Acker Bilk's Paramount Jazzband - Higher Ground
TTITLE17=Ken Colyer's Jazzmen - 
TTITLE18=Papa Bue's Viking Jazzband - Little Liza Jane
TTITLE19=Chris Barber's Jazzband - 
EXTD=
EXTT0=
EXTT1=
EXTT2=
EXTT3=
EXTT4=
EXTT5=
EXTT6=
EXTT7=
EXTT8=
EXTT9=
EXTT10=
EXTT11=
EXTT12=
EXTT13=
EXTT14=
EXTT15=
EXTT16=
EXTT17=
EXTT18=
EXTT19=
PLAYORDER=
